<?xml version="1.0"?>
<svg id="Layer_1" xmlns="http://www.w3.org/2000/svg" version="1.1" viewBox="0 0 1488 432">
  
  <defs>
    
  </defs>
  <path class="st0" d="M28.39,231.34L111.64,61.72l42.9,74.2c9.42-28.13,24.2-55.03,47.23-74.18,35.12-29.21,69.55-21.89,111.25-21.19,49.31.83,138.17-12.84,167.48,39.3,3.2,5.7,3.42,16.62,2.72,23.73-1.39,14.15-10.15,27.41-19.59,37.66-5.49,5.97-12.2,10.33-17.52,16.41,37.91,14.09,64.48,50.08,37.55,88.44-20.15,28.7-63.25,44.8-97.4,46.79-15.31.89-28.95-1.81-43.47-2.21-33.54-.91-67.22.78-100.77.04-3.39.64-7.38,12-10.69,14.74-.82.68-9.65,4.94-10.75,5.17-12.73,2.61-19.79-9.31-25.38-18.67-24.22-40.49-47.07-83.94-72.65-123.49-2.24-3.47-8.64-16.34-12.6-10.61l-36.5,73.49H28.39ZM360.24,77.61v62.55c20.52,1.7,78.25-6.97,69.26-37.98-6.07-20.93-51.37-25.33-69.26-24.57ZM307.23,83.97c-41.61-1.66-88.86,20.41-97.08,64.62-9.7,52.19,28.15,96.16,79.59,100.77,5.77.52,12.06-1.12,17.47,1.08l.02-166.47ZM362.36,255.73c19.01-.83,37.84-2.04,54.78-11.48,28.37-15.82,22.37-43.98-4.02-57.83-16.23-8.52-32.94-8.66-50.76-10.2v79.52Z"></path>
  <polygon class="st1" points="1401.39 218.62 1401.39 271.1 908.38 271.63 908.38 217.56 1401.39 218.62"></polygon>
  <rect class="st1" x="908.38" y="36.26" width="493.01" height="53.01"></rect>
  <path class="st1" d="M1001.68,112.6c-1.64,10.62-11.16,1.72-14.33,11.65-3.03,9.49-10.19,36.05-10.99,45.2-.23,2.67-.98,6,1.44,7.77,13.69-4.82,19.15-20.74,21.75-33.87h-9.53c.88-9.17,1.98-5.22,8.54-6.84,2.22-.55,5.27-2.02,7.07-3.41,4.89-3.77,7.92-14.38,15.14-11.49l-3.19,15.36,10.59-1.05c.53,9.98-6.29,4.63-12.76,8.12.11,5.48-8.61,27.5-4.28,30.66,2.52,1.83,6.64-1.5,8.58-3.24,13.3-11.96,13.32-32.98,19.08-48.78l-10.61-.55c.34-9.08,7.48-6.04,14.3-6.37,4.72-.22,9.24-2.22,14.31.52-1.49,7.24-15.65,54.94-12.7,57.8,3.74.64,5.21-1.25,7.39-3.75,9.54-10.95,11.88-31.44,29.44-34.17,9.34-1.45,11.03,4.03,13.52,4,.96-.01.49-2.46,2.25-3.06,4.1-1.4,10.1,1.4,14.19-1.2-1.05,5.44-10.18,36.56-7.41,39.23.36.35,3.29,0,4.23-.54,3.42-2.01,6.26-18.21,13.22-10.02,3.88,4.56-.58,9.39,1.06,12.67,2.76,5.53,14.57-.11,13.15-5.6-.83-3.22-12.09-9.98-14.7-14-10-15.38,17.01-28.52,30.25-18.58,5.65,4.24,5.52,13.9-3.21,13.89s-2.79-9.64-5.96-11.61c-4.8-2.97-9.48,4.91-6.74,9.39,1.15,1.89,9.25,6,11.7,8.45,16.91,16.96-16.7,33.83-30.33,21.84-1.18-1.04-2.04-3.79-2.64-3.84-3.58-.28-11.46,11.33-21.01,6.29-2.29-1.21-4.03-5.17-4.45-5.24-1.9-.29-7.14,4.44-10.47,5.42-5.38,1.59-9.47,1.36-14.31-1.7l-5.87-8.94c-7.49,10.83-27.58,19.62-30.76,1.06-7.84,6.66-15.5,13.56-26.75,9.78-4.66-1.57-6.7-7.69-7.24-7.73-2-.15-4.68,3.08-6.54,4.07-1.54.82-5.99,3.33-6.91,3.73-10.3,4.44-20.38.15-20.86-11.61-.23-5.56,4.46-12.54,5.22-18.38h-14.84c-2.81,17.69-17.1,33.84-36.52,30.69-7.1-1.15-5.76-8.45-1.29-7.21,3.66,1.01,2.23,6.89,9.75.93,9.33-7.39,9.02-21.99,12.11-32.41,4.54-15.3,20.64-33.35,37.69-33.35h31.28ZM950.8,147.58c3.48-.56,12.1,1.27,14.34-1.02l8.97-28.66c-14.28,2.36-20.97,16.63-23.31,29.68ZM1076.03,175.01c7.2,4.61,14.03-15.7,14.59-20.64,2.18-19.31-10.67-13.01-14.79.05-1.24,3.94-3.46,18.25.19,20.59Z"></path>
  <path class="st1" d="M1281.05,136.98c.18,0,1.18-1.86,2.15,0,.75,1.43-.83,2.26-.04,3.17,20.61-13.14,27.85,5.27,23.34,23.36,11.32-11.2,22.42-31.17,41.11-27.33,11.65,2.39,11.84,20.16.18,20-3.26-.04-5.12-3.79-4.73-6.89.41-3.2,4.84-5.27,4.24-6.45-3.54-6.97-10.83,5.63-12.17,9.01-1.97,5.01-6.1,23.44,1.11,24.4,14.2,1.89,25.62-36.99,43.66-40.06,25.93-4.42,26.72,26.38,11.96,40.59-11.98,11.54-33.71,12.07-35.02-7.97-7.69,9.72-23.29,21.82-35.5,12.71-6.48-4.83-5.35-8.33-5.84-15.38-.08-1.16.59-3.53-1.58-2.63-2.15.9-9.74,10.28-12.76,12.69-8.86,7.05-19.53,10.88-30.19,5.33-.18,3.23-2.62,19.03-4.75,19.75-2.74.93-10.8-1.76-14.34-.68l10.59-40.28c-10.38,10.63-22.48,26.99-39.5,24.13-7.74-1.3-9.6-5.37-11.41-11.93-1.25-4.54-2.52.71-4.15,2.16-7.12,6.34-14.41,9.89-23.98,10.93-.83-2.92-3.4-1.66-5.46-2.79-4.21-2.32-7.5-5.12-9.57-9.53-11.34-24.17,12.6-70.28,42.86-58.77,1.75.67,5.15,3.64,6.13,3.4,1.57-.39,1.18-4.01,2.23-4.32,1.39-.4,5.19-.04,5.62,1.74s-4.69,23.14-6.9,23.65c-6.66,1.54-2.26-15.39-8.9-18.41-10.18-4.63-18.93,14.53-21.47,21.96-2.74,8-9.52,37.47,6.67,33.19,14.16-3.74,17.46-29.81,33.56-37.49,7.84-3.74,17.85-3.96,23.09,4.1,4.08,6.29,2.39,12.18,2.17,19.03,1.75-2.85,14.98-15.27,12.21-18.01h-4.26c-.35-.34.75-6.37,1.07-6.37,6.17,0,12.37.07,18.55,0ZM1237.83,141.37c-5.63.84-10.84,14.89-11.96,19.95-5.85,26.41,10.85,20.39,15.96.06,1.08-4.3,4.02-21.21-4-20.01ZM1381.93,175.83c6.9-6.29,10.26-22.84,7.3-31.47-4.5-13.13-14.7,11.36-15.78,16.11-1.59,7.04-3.19,25.99,8.47,15.36ZM1288.72,142.42c-8.22,1.25-16.4,30.54-14.1,33.83.87,1.24,4.35,1.93,5.92,1.61,8.94-1.85,13.86-22.95,12.63-30.74-.41-2.59-1.4-5.16-4.46-4.7Z"></path>
  <path class="st1" d="M68.68,239.83l-23.33,43.47H1.88c2.22-4.88,5.18-9.35,7.66-14.1,3.27-6.26,7.65-13.11,10.78-19.95,1.21-2.66,2.27-6.49,2.77-9.42h45.59Z"></path>
  <path class="st1" d="M587.13,191.05v54.6c0,.9,1.2,7.67,1.53,9.07,4.14,17.67,25.27,21.77,39.14,12.52,2.52-1.68,8.1-9.35,8.1-12.04v-64.14h9.54v64.14c0,.95-3.89,9.66-4.84,11.06-15.54,22.94-63.02,14.66-63.02-15.3v-59.9h9.54Z"></path>
  <path class="st1" d="M500.19,274.8l2.13-7.41c11.95,5,40.19,8.54,45.62-6.84,7.03-19.9-21.47-20.4-32.89-25.52-24.35-10.9-13.88-40.92,11.23-43.87,6.12-.72,25.6.73,30.16,4.67,1.69,1.46-1.06,6.32-2.83,6.66-2.42.46-13.9-3.8-17.94-4.04-12.21-.72-27.69,7.83-21.95,22.02,5.32,13.14,43.16,6.3,45.85,29.43,3.77,32.45-37.88,33.56-59.37,24.91Z"></path>
  <path class="st1" d="M679.37,191.05v80.58h44.53c.68,7.04.48,8.4-6.95,8.52-3.08.05-5.54-1.09-8.38-1.14-12.9-.22-25.85.25-38.74.04v-88h9.54Z"></path>
  <path class="st0" d="M804.48,321.46c4.65.32,9.72-.44,14.3.02,25.55,2.57,17.98,39.79-5.56,43.18-2.74.39-15.56,1.29-16.11-1.39l7.37-41.81ZM807.66,357.51c12.27,1.69,22.27-11.84,17.9-22.69-1.79-4.45-10.96-8.06-13.57-5.84-1.1.93-4.29,24.87-4.33,28.52Z"></path>
  <path class="st0" d="M1450.16,319.35l-7.43,45.58h-7.41s1.05-4.23,1.05-4.23c-21.74,16.78-27.8-22.4-8.75-28.37,2.64-.83,12.24-1.93,12.8-2.58,1.25-1.44.9-10.02,1.26-10.4.34-.36,6.94.25,8.49.01ZM1431.73,338.72c-9.27,1.09-11.66,21.95-.35,18.6,4.89-1.45,12.96-20.09.35-18.6Z"></path>
  <path class="st0" d="M976.23,319.35l-3.18,13.77c6.84-3.53,16.06-1.47,18.59,6.34.91,2.81-.81,6.94,2.6,6.41v1.03c-3.08-.47-1.85,2.92-2.92,5.02-4.76,9.33-14.75,17.52-24.63,9.84.97,4.91-2.53,2.92-6.37,3.18l7.42-45.59h8.48ZM975.93,339.72c-6.96,1.57-9.32,17.37-1.2,17.77,10.92.54,15.6-21.04,1.2-17.77Z"></path>
  <path class="st0" d="M1083.32,319.35c-1.83,5.44-5.93,42.85-7.63,44.32-.28.24-6.95,1.51-7.21,1.26l.54-4.21c-18.44,14.73-26.58-14.1-12.75-25.48,4.93-4.06,12.61-6.11,17.5-1.04.07-2.15,1.56-14.15,2.24-14.73.8-.68,5.67.2,7.31-.11ZM1065.02,338.59c-10.43,1.89-11.73,22.53.34,18.47,5.78-1.94,10.95-20.51-.34-18.47Z"></path>
  <path class="st0" d="M1191.47,322.52l7.43,42.42c-11.29,2.64-6.59-5.47-8.54-7.37-.61-.59-15.74-.22-16.9.48-3.16,1.9-3.16,9.83-12.73,6.88l24.89-41.36,5.85-1.05ZM1189.34,351.14l-2.64-15.89-10.08,15.89h12.72Z"></path>
  <path class="st0" d="M1410.93,332.07c-1.32,4.27-3.09,31.68-4.36,32.75-.37.31-4.8.36-5.79.2-2.08-.32-1.47-2.26-2.08-2.26-1.56-.02-3.61,2.12-6.34,2.25-14.63.69-14.02-21.29-4.8-29.27.83-.72,5.42-3.67,5.87-3.67h17.49ZM1403.51,339.5c-5.19-1.65-9.52-1.17-12.72,3.69-3.36,5.08-3.5,16.53,4.55,14.13,5.2-1.55,7.51-12.99,8.17-17.81ZM1399.8,360.69v1.06c.69-.35.69-.71,0-1.06Z"></path>
  <path class="st0" d="M1102.16,331.28c25.12-.86,14.69,37.95-7.47,33.41-17.55-3.6-10.24-32.8,7.47-33.41ZM1098.91,339.71c-6.77,2.01-9.68,18.39.76,17.78,11.13-.64,14.22-22.23-.76-17.78Z"></path>
  <path class="st0" d="M1454.81,339.89c3.03-4.68,11.33-9.38,16.97-8.81,20.86,2.11,12.74,33.5-7.37,33.9-12.64.25-15.31-16.29-9.6-25.09ZM1466.82,339.71c-8.13,1.85-10.61,17.17-1.21,17.79,9.8.64,16.6-21.28,1.21-17.79Z"></path>
  <path class="st0" d="M1280.28,331.2c22.46-2.58,20.48,28.32,1.12,33-23.03,5.57-21.05-30.72-1.12-33ZM1282.27,338.75c-10.03.55-14.04,16.76-5.21,18.58,11.07,2.28,17.28-19.24,5.21-18.58Z"></path>
  <path class="st0" d="M1234.89,332.11l-5.75,30.74c-3.95,1.76-8.47,3.99-7.45-2.15-4.17,5.8-15.51,6.09-17.27-1.82-2.04-9.17,1.89-17.94,2.96-26.81h7.42c1.03,1.03-6.1,22.22-2.2,24.99,1.92,1.37,5.62.19,7.47-1.16,5.72-4.17,4.29-18.4,6.47-24.8l8.35,1.02Z"></path>
  <path class="st0" d="M1027.12,331.01l-5.29,33.93h-7.42s1.06-3.18,1.06-3.18c-.66-.58-10.47,6.96-16.48,1.1-6.07-5.92,1.83-22.9.57-30.8l8.49.02c-.33,5.75-9.07,25.38.54,25.35,10.56-.03,8.09-21.82,10.53-25.43,1.19-1.76,5.92-.79,8.02-.98Z"></path>
  <path class="st0" d="M1377.01,332.07c3.35,3.34-15.67,21.13-18.02,24.39h15.9c-.64,1.41-.77,8.17-1.07,8.48-.74.76-8.87-1.1-11.08-1.11-5.75-.03-10.8,1.42-16.48,1.11-3.1-2.96,18.22-21.5,19.08-25.44h-15.9v-7.42h27.57Z"></path>
  <path class="st0" d="M902.02,322.53c-2.07,8.53-1.99,9.93,7.42,9.54-.88,1.43-.81,7.13-1.07,7.4-.6.64-7.94-.76-9.38.15-.66.42-3.43,14.25-3.36,15.24.36,4.91,6.83,1.45,9.59,2.13-.63,8.39-3.86,9.52-11.98,7.71-10.43-2.33-3.44-17.74-2.85-24.68l-3.19-1.05c1.69-1.6,1.57-6.46,3.14-7.55,1.01-.71,3.1.78,3.21.66.55-.64.74-9.2,1.07-9.54.38-.39,5.96.24,7.41,0Z"></path>
  <path class="st0" d="M1252.96,322.52l-1.06,9.54,9.53.52c-1.63,1.08-1.73,6.38-2.21,6.8-.91.79-8.86-.48-9.43.11s-2.31,15.3-1.99,16.26c1.18,3.53,5.76.55,8.34.7,2.38,12.4-14.97,10.93-16.51,1.12-.87-5.55,2.9-12.08,3.81-17.55-3.94.33-4.18-4.19-3.07-7.32.7-1.98,3.39-1.09,4.15-2.45,2.96-5.29-3.12-9.27,8.45-7.75Z"></path>
  <path class="st0" d="M868.28,339.67c-4.03,2.68,2.4,3.88,4.41,5.29,5.42,3.82,9.24,8.62,4.46,14.72-6.29,8.03-25.04,8.1-19.65-5.35,2.35-1.56,6.5,6.4,13.12,2,5.86-3.89-6.91-6.89-8.94-9.14-2.46-2.73-2.95-8.05-1.08-11.21,3.17-5.33,23.26-6.74,20.07,2.82-1.37,4.11-9.44-1.11-12.4.87Z"></path>
  <path class="st0" d="M76.1,342.67c1.08-1.04,5.89-.14,4.25,3.19,3.73-3.38,9.25-4.12,14.09-2.97,2.12.51,3.66,2.86,5.5,2.92,3.15.11,7.19-4.61,14.84-3.11,1.54.3,5.85,4.14,5.85,4.74v23.86h-3.18v-19.61c0-1.4-3.97-5.52-5.89-5.84-2.94-.48-11.08,3.64-11.08,4.25v20.67c0,1.83-4.24,1.83-4.24,0v-20.14c0-2.35-4.45-4.83-6.89-4.82-1.47,0-9.01,3.79-9.01,4.29v22.26c0,.21-4.24.21-4.24,0,0-4.03-1.07-28.66,0-29.69Z"></path>
  <path class="st0" d="M481.11,351.15c-2.61,3.63.78,17.13-1.27,18.88-.27.23-6.28,2.18-6.63,2.2-1.38.09-10.87-.85-12.54-1.18-16.53-3.28-20.04-29.37-5.74-38.13,8.1-4.97,16.2-3.53,25.12-1.91l-1.1,4.23c-16.28-7.48-34.63,5.42-27,23.32,4.47,10.5,15.45,9.68,24.92,8.49-.32-1.9.42-11.25,0-11.67-1.6-1.6-13.37,3.57-10.61-4.24h14.84Z"></path>
  <path class="st0" d="M603.03,325.7v45.59c-2.91,1.36-3.3-2.13-3.79-2.19-2.03-.26-4.15,1.78-6.33,2.13-25.6,4.12-20.24-40.11,5.88-26.45v-19.08c0-.21,3.48.14,4.24,0ZM587.88,346.07c-8.06,1.85-10.09,14.97-3.24,19.75,16.82,11.74,20.91-23.81,3.24-19.75Z"></path>
  <path class="st0" d="M134.16,343c.21.12.27,1.78.86,1.86,1.86.25,4.65-1.93,7.32-2.23,11.93-1.35,19.43,11.06,13.73,21.16-5.04,8.93-12.42,8.45-21.65,6.45-.37,2.12.49,13.31-.01,13.78-.15.15-4.08.15-4.23,0-1.4-1.34.89-34.13,0-38.7.21-2.24,1.94-3.44,3.99-2.32ZM149.97,348.3c-4.52-4.93-14.72-2.28-15.62,4.39-.99,7.29-1.04,15.07,8.02,15.5,9.89.47,13.2-13.77,7.59-19.89Z"></path>
  <path class="st0" d="M926.35,331.1c.37.4-.06,2.26.07,3.1,4.57-4.37,8.18-2.94,13.77-2.12-1.72,1.49-1.83,8.15-2.13,8.47-.4.43-6.39-3.12-11.15,1.03-5.57,4.86-4.96,22.47-5.8,23.36-.32.34-5.99-.23-7.43,0l4.24-33.94c1.67.3,7.88-.48,8.43.1Z"></path>
  <path class="st0" d="M1146.94,331.01c.42.42-.76,8.02-1.17,8.37-1.65,1.4-8.68-3.45-12.96,3.58-3.13,5.14-3.12,21.17-3.9,21.98-.35.36-6.94-.26-8.48-.01,1.58-11.5,5.11-22.28,5.3-33.92,7.92,3.38,13.3-.7,21.2,0Z"></path>
  <path class="st0" d="M32.45,330.11c.52.46,1.64,4.51-.4,5.1-4.04,1.17-3.58-1.88-4.38-2.05-15.36-3.29-28.52,12.81-20.33,26.85,5.71,9.78,15.76,7.9,25.29,7.05-.14.87.23,2.85-.01,3.15-.53.65-14.76,1.88-16.65,1.82-2.69-.09-9.75-5.3-11.58-7.46-.55-.65-4.31-6.26-4.38-6.65-.12-.61.81-10.91,1.06-12.35,1.75-10.24,11.55-16.63,21.5-16.77,1.34-.02,9.51.98,9.89,1.31Z"></path>
  <path class="st0" d="M1313.39,331c.27.3-.18,2.37,0,3.19,4.66-2.5,8.54-2.42,13.78-2.11-1.29,1.38-1.81,8.18-2.13,8.48-.63.59-10.14-5.37-14.12,5.48-1.15,3.15-2.59,17.82-4.04,18.76-1.19.77-5.46-.22-7.28.13,2.12-11.24,5.2-22.37,5.3-33.92,2.14,2,8.18-.33,8.47,0Z"></path>
  <path class="st0" d="M333.73,359.63c.48,10.16,11.65,8.91,19.08,7.43,1.92,5.62-11.5,4.83-15.14,4.01-14-3.16-13.24-33.71,8.82-27.9,8.7,2.29,10.04,16.46,6.86,16.46h-19.61ZM349.64,355.39c.21-13.01-15.32-12.64-16.96,0h16.96Z"></path>
  <path class="st0" d="M673.01,359.63c.17,5.23,6.52,8.41,11.17,8.53,1.79.05,8.22-1.89,8.98-1.11,2.96,3.06-4.53,4.16-6.85,4.28-12.19.64-18.84-5-17.53-17.54,1.81-17.3,28.56-13.89,26.56,4.19-.05.25-4.55,1.64-4.83,1.64h-17.49ZM689.97,355.39c.08-13.03-15.92-12.57-16.96,0h16.96Z"></path>
  <path class="st0" d="M405.83,359.63c1.63,9.27,12.76,9.39,20.14,7.43-.18,1.12.39,3.56-.09,4.14-.84,1.01-12.97.06-14.78-.4-12.24-3.14-13.43-23.5-1.8-27.31,8.46-2.78,16.87.27,18.54,9.51.62,3.42.98,6.64-3.45,6.64h-18.55ZM423.85,355.39c-1.13-13.51-16.69-12.55-18.02,0h18.02Z"></path>
  <path class="st0" d="M66.19,365.64c-3.53,5.69-10.9,6.37-17.04,5.55-15.12-2.02-14.72-26.82.95-28.55,12.49-1.38,18.62,5.31,17.5,17.51-.16,1.74-.49,4.02-1.4,5.49ZM59.87,365.66c9.62-8.49-1.22-26.07-12.95-17.71-10.72,7.64,1.28,28.01,12.95,17.71Z"></path>
  <path class="st0" d="M280.45,342.93c24.31-6.2,27.48,27.21,6.13,28.42s-17.91-25.41-6.13-28.42ZM278.93,348.3c-9.16,8.53,1.73,25.74,12.94,17.71,10.99-7.87-1.82-28.07-12.94-17.71Z"></path>
  <path class="st0" d="M211.81,358.57h-22.26c.22,5.5,4.76,9.15,10.08,9.6,3.98.33,12.64-3.62,9.56,2.08-1.33,2.46-11.66,1.39-14.58.76-16.1-3.52-10.55-34.63,9.73-27.76,5.09,1.72,7.85,10.33,7.47,15.32ZM207.57,355.39c-1-13.41-15.97-12.43-18.02,0h18.02Z"></path>
  <path class="st0" d="M516.09,358.57h-22.26c-.94,13.8,19.28,7.55,20.14,8.49,2.39,2.61-2.48,4.02-4.75,4.24-7.63.72-15.73.37-18.62-7.9-8.22-23.56,26.93-30.41,25.49-4.82ZM510.79,355.39c1.43-13.84-16.29-11.9-16.96,0h16.96Z"></path>
  <path class="st0" d="M630.96,370.67c-.4.22-.22,1.59-.82,1.55-2.14-.13-8.43-.85-10.2-1.4-11.71-3.61-10.95-24.87.85-27.9,18.8-4.82,28.9,17.65,10.17,27.75ZM619.26,365.66c11.79,10.41,24.26-12.08,11.73-18.61-11.7-6.11-20.77,10.64-11.73,18.61Z"></path>
  <path class="st0" d="M569.1,371.29c-3.79,1.57-4.48-2.16-4.78-2.17-2.09-.06-3.62,2.52-5.25,2.74-3.37.46-12.13-1.35-13.82-4.8-5.43-11.09,11.53-12.54,18.56-11.67.78-11.58-7.66-10.23-15.9-7.43-2.44-6.14,9-6.03,13.2-5.24,11.85,2.22,4.49,20.43,8,28.56ZM563.55,365.74c.22-.32,1.12-4.31,1.1-4.76-.23-4.72-14.68-2.15-15.59,1.51-1.61,6.44,11.82,7.09,14.49,3.26Z"></path>
  <path class="st0" d="M1045.15,331.01l-5.3,33.93h-7.43c-1.04-8.77,1.82-16.42,3.2-24.91l-4.26-.55c.57-10.96,4.67-8.44,13.79-8.47Z"></path>
  <path class="st0" d="M852.19,331c-1.39,5.49-2.65,29.88-4.71,32.93-1.2,1.78-5.9.8-8.02.99-.16-4.07,4.3-22.07,2.96-24.18-.36-.56-2.53-.63-2.82-1.85-.09-.39.65-7.61.92-7.9.4-.42,9.77.31,11.67,0Z"></path>
  <path class="st0" d="M957.15,331.01c-2.11,4.22-5.15,32.7-6.47,33.81-.8.68-5.67-.2-7.31.11l4.24-26.5-4.23,1.05c.61-1.41.77-8.16,1.06-8.47.44-.46,10.71.31,12.71,0Z"></path>
  <path class="st0" d="M1342.95,332.19c-.93,4.21-4.03,31.54-5.22,32.69-.54.52-5.84-.22-7.38.05-.81-3.62,5.17-25.48,4.22-26.48-.34-.36-2.84.27-3.15-.03-.27-.26.85-7.09,1.12-7.35.61-.6,9.74.04,10.42,1.12Z"></path>
  <path class="st0" d="M237.12,343.85c.31.38.26,3.96.12,4.11-.62.7-7.16-4.4-12.1-.97-7.85,5.46,6.46,7.75,8.94,8.91,8.64,4.04,4.64,14.08-2.73,15.32-4.44.75-15.48,1.32-13.19-5.23.52-.6,10.71,5.36,14.91-.46,6.55-9.07-14.96-3.8-14.97-14.92-.01-9.85,16.95-9.3,19.01-6.77Z"></path>
  <path class="st0" d="M263.63,343.85c.32.39.26,3.96.12,4.11-.58.67-14.82-6.79-13.86,3.74.2,2.14.22,1.16,1.55,1.71,6.94,2.86,17.3,2.22,12.4,13.2-2.88,6.46-6.5,4.44-11.21,4.58-5.1.15-6.37,3.77-6.89-4.13,1.36-1.29,13.88,4.12,13.88-3.72,0-6.88-14.99-2.61-15-12.72,0-9.16,16.79-9.48,19-6.77Z"></path>
  <path class="st0" d="M720.59,343.85c.54.66-.05,2.96.12,4.11-5.84-1.38-13.45-3.43-13.84,4.67,6.61,2.91,19.29,3.57,14.36,14.41-2.45,5.38-17.95,5.19-19.59,3.17-.24-.3.13-2.28-.01-3.15,2.55-.21,15.43.87,15.98-1.71,1.81-8.53-15.47-4.88-15.88-13.64-.45-9.45,16.22-11.09,18.86-7.86Z"></path>
  <path class="st0" d="M380.25,343.85c.32.39.26,3.96.12,4.11-.64.73-14.84-6.67-14.85,5.29,7.56.97,21.39,4.66,14.3,14.83-.71,1.02-4.13,3.62-5.25,3.77-1.26.16-12.85-1.13-13.28-1.65-.25-.3.13-2.28-.01-3.15.71-.74,15.05,2.57,15.99-1.73,1.74-8.03-15.91-5.06-15.91-14.71,0-8.15,16.36-9.86,18.88-6.77Z"></path>
  <path class="st0" d="M648.62,342.67c1.73-1.66,6.01.52,4.25,4.24,4.12-3.13,7.16-5.21,12.71-4.24-.06,6.3-3.81,3.2-7.41,4.78-.47.2-5.31,4.91-5.31,5.29v18.55c0,.21-4.24.21-4.24,0,0-3.9-1.03-27.63,0-28.63Z"></path>
  <path class="st0" d="M165.16,342.67c2.46-2.32,4.57,2.14,4.88,2.18,2.72.38,8.53-4.56,13.14-1.11-2.35,4.68-5.32,1.38-9.44,3.79-.79.46-4.33,3.85-4.33,4.15v19.61c0,.25-4.24,1.36-4.24-.53,0-3.86-1.02-27.13,0-28.1Z"></path>
  <path class="st0" d="M309.35,342.67c1.34-1.29,5.3.16,4.78,3.19,1.56.12,3.26-2.4,5.51-2.97,4.5-1.14,8.48.95,4.58,3.51-1.45.95-4.29.14-6.37,1.05-.51.23-4.26,3.93-4.26,4.23v19.61c0,.21-4.24.21-4.24,0,0-3.9-1.03-27.63,0-28.63Z"></path>
  <path class="st0" d="M524.58,342.67c1.73-1.66,6.01.52,4.25,4.24,3.34-3.46,13.22-8.31,11.66,0-16.56-2.38-11.63,14.71-12.73,25.46h-3.18c.81-3.83-1.07-28.66,0-29.69Z"></path>
  <path class="st0" d="M852.98,317.49c3.93,3.96-1.02,12.86-6.73,8.31-4.93-3.92,2.13-12.95,6.73-8.31Z"></path>
  <path class="st0" d="M1039.55,317.4c8.42-2.49,9.3,10.56.9,9.39-4.92-.68-5.15-8.13-.9-9.39Z"></path>
  <path class="st0" d="M949.88,317.38c5.62-3.52,11.94,5.43,6.22,8.87-6.78,4.09-9.47-6.84-6.22-8.87Z"></path>
  <path class="st0" d="M1337.4,317.36c8.41-2.83,10.34,7.48,3.86,9.24s-7.39-8.05-3.86-9.24Z"></path>
</svg>